# xmcd
#
# Track frame offsets:
#	150
#	12639
#	23483
#	36993
#	49919
#	60422
#	71489
#	82754
#	91915
#	101771
#	112454
#	125408
#	137159
#	146919
#	158842
#	168634
#	178040
#	189951
#	202489
#	215245
#
# Disc length: 3020 seconds
#
# Revision: 4
# Processed by: cddbd v1.5.2PL0 Copyright (c) Steve Scherf et al.
# Submitted via: EasyCDDAExtractor 10.0.2.1
#
DISCID=300bca14
DTITLE=Jim Reeves - The Ultimate Collection [CD1)
DYEAR=1996
DGENRE=Country
TTITLE0=I Love You Because
TTITLE1=Welcome to my World
TTITLE2=Have You Ever Been Lonely (Have You Ever Been Blue)
TTITLE3=Have I Told You Lately That I Love You?
TTITLE4=He'll Have To Go
TTITLE5=Make The World Go Away
TTITLE6=Moon River
TTITLE7=I Won't Forget You
TTITLE8=When Two Worlds Collide
TTITLE9=Memories Are Made Of This
TTITLE10=You'll Never Know
TTITLE11=Mona Lisa
TTITLE12=Oh, How I Miss You Tonight
TTITLE13=Mexican Joe
TTITLE14=It Hurts Me So Much To See You Go
TTITLE15=There's A Heartache Following Me
TTITLE16=Am I Losing You
TTITLE17=Blue Side Of Lonliness
TTITLE18=Four Walls
TTITLE19=Adios Amigo
EXTD=
EXTT0=
EXTT1=
EXTT2=
EXTT3=
EXTT4=
EXTT5=
EXTT6=
EXTT7=
EXTT8=
EXTT9=
EXTT10=
EXTT11=
EXTT12=
EXTT13=
EXTT14=
EXTT15=
EXTT16=
EXTT17=
EXTT18=
EXTT19=
PLAYORDER=
